# xmcd
#
# Track frame offsets:
#	150
#	21627
#	42516
#	54440
#	67982
#	87541
#	105453
#	123120
#	139018
#	150677
#	166648
#	178255
#	194922
#	212246
#	227553
#	240386
#	257323
#	271160
#	287978
#
# Disc length: 4043 seconds
#
# Revision: 1
# Processed by: cddbd v1.5.1PL0 Copyright (c) Steve Scherf et al.
# Submitted via: audiograbber 1.83.01
#
DISCID=0f0fc913
DTITLE=Promo Only Canada - Country Radio - 1999 - 11 - November
DYEAR=1999
DGENRE=Country
TTITLE0=Dixie Chicks - Cowboy Take Me Away
TTITLE1=Tim McGraw - My Best Friend
TTITLE2=Alecia Elliott - I'm Diggin' It
TTITLE3=Toby Keith - When Love Fades
TTITLE4=Julian Austin - Back In Your Life
TTITLE5=Alabama - Small Stuff
TTITLE6=Bryan White - God Gave Me You
TTITLE7=Lonestar - Smile
TTITLE8=Merle Haggard with Jewel - That's The Way Love Goes
TTITLE9=Keith Harling - Bring It On
TTITLE10=Sherrie Austin - Little Bird
TTITLE11=Michelle Wright - When I Found You
TTITLE12=Chely Wright - It Was
TTITLE13=Steve Holy - Don't Make Me Beg
TTITLE14=Shana Petrone - Something Real
TTITLE15=Prairie Oyster - One Of Those Nights
TTITLE16=The Lynns - Shoes
TTITLE17=Farmer's Daughter - Walkin' In The Sunshine
TTITLE18=Susan Ashton - Closer
EXTD=
EXTT0=
EXTT1=
EXTT2=
EXTT3=
EXTT4=
EXTT5=
EXTT6=
EXTT7=
EXTT8=
EXTT9=
EXTT10=
EXTT11=
EXTT12=
EXTT13=
EXTT14=
EXTT15=
EXTT16=
EXTT17=
EXTT18=
PLAYORDER=
